<svg width="1820" height="575" viewBox="0 0 1820 575" fill="none" xmlns="http://www.w3.org/2000/svg">
<path d="M417.93 76.4609V74.1758H413.232V69.4785H408.662V64.9082H404.092V60.3379H399.521V14.2539H408.662V55.7676H413.232V60.3379H417.93V64.9082H427.07V60.3379H431.768V55.7676H436.338V14.2539H445.479V60.3379H440.908V64.9082H436.338V69.4785H431.768V74.1758H427.07V78.7461H417.93V76.4609ZM470.412 74.1758V69.4785H479.68V23.5215H470.412V14.2539H498.088V23.5215H488.82V69.4785H498.088V78.7461H470.412V74.1758ZM527.592 76.4609V74.1758H523.021V64.9082H532.162V69.4785H555.268V64.9082H559.838V55.7676H555.268V51.0703H532.162V46.5H527.592V41.9297H523.021V23.5215H527.592V18.8242H532.162V14.2539H564.408V18.8242H568.979V28.0918H559.838V23.5215H536.732V28.0918H532.162V37.2324H536.732V41.9297H559.838V46.5H564.408V51.0703H568.979V69.4785H564.408V74.1758H559.838V78.7461H527.592V76.4609ZM584.771 46.5V14.2539H593.912V41.9297H621.588V14.2539H630.729V78.7461H621.588V51.0703H593.912V78.7461H584.771V46.5ZM646.521 46.5V14.2539H655.662V18.8242H660.232V23.5215H664.93V32.6621H669.5V41.9297H674.07V51.0703H678.768V60.3379H683.338V14.2539H692.479V78.7461H683.338V74.1758H678.768V69.4785H674.07V60.3379H669.5V51.0703H664.93V41.9297H660.232V32.6621H655.662V78.7461H646.521V46.5ZM717.412 76.4609V74.1758H712.842V69.4785H708.271V14.2539H717.412V64.9082H721.982V69.4785H740.518V64.9082H745.088V14.2539H754.229V69.4785H749.658V74.1758H745.088V78.7461H717.412V76.4609ZM770.021 46.5V14.2539H779.162V69.4785H815.979V78.7461H770.021V46.5ZM850.18 14.2539H859.32V18.8242H864.018V23.5215H868.588V28.0918H873.158V32.6621H877.729V78.7461H868.588V60.3379H840.912V78.7461H831.771V32.6621H836.342V28.0918H840.912V23.5215H845.482V18.8242H850.18V14.2539ZM850.18 28.0918V32.6621H845.482V37.2324H840.912V51.0703H868.588V37.2324H864.018V32.6621H859.32V28.0918H850.18ZM893.521 46.5V14.2539H902.662V69.4785H939.479V78.7461H893.521V46.5ZM1026.16 74.1758V69.4785H1035.43V23.5215H1026.16V14.2539H1053.84V23.5215H1044.57V69.4785H1053.84V78.7461H1026.16V74.1758ZM1083.34 76.4609V74.1758H1078.77V64.9082H1087.91V69.4785H1111.02V64.9082H1115.59V55.7676H1111.02V51.0703H1087.91V46.5H1083.34V41.9297H1078.77V23.5215H1083.34V18.8242H1087.91V14.2539H1120.16V18.8242H1124.73V28.0918H1115.59V23.5215H1092.48V28.0918H1087.91V37.2324H1092.48V41.9297H1115.59V46.5H1120.16V51.0703H1124.73V69.4785H1120.16V74.1758H1115.59V78.7461H1083.34V76.4609ZM1220.68 14.2539H1229.82V18.8242H1234.52V23.5215H1239.09V28.0918H1243.66V32.6621H1248.23V78.7461H1239.09V60.3379H1211.41V78.7461H1202.27V32.6621H1206.84V28.0918H1211.41V23.5215H1215.98V18.8242H1220.68V14.2539ZM1220.68 28.0918V32.6621H1215.98V37.2324H1211.41V51.0703H1239.09V37.2324H1234.52V32.6621H1229.82V28.0918H1220.68Z" fill="black"/>
<path d="M131.521 165.5V133.254H140.662V137.824H145.232V142.521H149.93V147.092H159.07V142.521H163.768V137.824H168.338V133.254H177.479V197.746H168.338V151.662H163.768V156.232H159.07V165.5H149.93V156.232H145.232V151.662H140.662V197.746H131.521V165.5ZM202.412 133.254H230.088V137.824H234.658V142.521H239.229V188.479H234.658V193.176H230.088V197.746H202.412V193.176H197.842V188.479H193.271V142.521H197.842V137.824H202.412V133.254ZM206.982 142.521V147.092H202.412V183.908H206.982V188.479H225.518V183.908H230.088V147.092H225.518V142.521H206.982ZM273.43 170.07V142.521H255.021V133.254H300.979V142.521H282.57V197.746H273.43V170.07ZM325.912 193.176V188.479H335.18V142.521H325.912V133.254H353.588V142.521H344.32V188.479H353.588V197.746H325.912V193.176ZM387.662 133.254H415.338V137.824H419.908V142.521H424.479V188.479H419.908V193.176H415.338V197.746H387.662V193.176H383.092V188.479H378.521V142.521H383.092V137.824H387.662V133.254ZM392.232 142.521V147.092H387.662V183.908H392.232V188.479H410.768V183.908H415.338V147.092H410.768V142.521H392.232ZM440.271 165.5V133.254H449.412V137.824H453.982V142.521H458.68V151.662H463.25V160.93H467.82V170.07H472.518V179.338H477.088V133.254H486.229V197.746H477.088V193.176H472.518V188.479H467.82V179.338H463.25V170.07H458.68V160.93H453.982V151.662H449.412V197.746H440.271V165.5ZM563.771 133.254H591.32V137.824H596.018V142.521H600.588V147.092H605.158V151.662H609.729V179.338H605.158V183.908H600.588V188.479H596.018V193.176H591.32V197.746H563.771V133.254ZM572.912 142.521V188.479H586.75V183.908H591.32V179.338H596.018V174.768H600.588V156.232H596.018V151.662H591.32V147.092H586.75V142.521H572.912ZM625.521 165.5V133.254H671.479V142.521H634.662V160.93H662.338V170.07H634.662V188.479H671.479V197.746H625.521V165.5ZM691.842 195.461V193.176H687.271V183.908H696.412V188.479H719.518V183.908H724.088V174.768H719.518V170.07H696.412V165.5H691.842V160.93H687.271V142.521H691.842V137.824H696.412V133.254H728.658V137.824H733.229V147.092H724.088V142.521H700.982V147.092H696.412V156.232H700.982V160.93H724.088V165.5H728.658V170.07H733.229V188.479H728.658V193.176H724.088V197.746H691.842V195.461ZM758.162 193.176V188.479H767.43V142.521H758.162V133.254H785.838V142.521H776.57V188.479H785.838V197.746H758.162V193.176ZM819.912 195.461V193.176H815.342V188.479H810.771V142.521H815.342V137.824H819.912V133.254H847.588V137.824H852.158V142.521H856.729V156.232H847.588V147.092H843.018V142.521H824.482V147.092H819.912V183.908H824.482V188.479H847.588V174.768H829.18V165.5H856.729V197.746H819.912V195.461ZM872.521 165.5V133.254H881.662V137.824H886.232V142.521H890.93V151.662H895.5V160.93H900.07V170.07H904.768V179.338H909.338V133.254H918.479V197.746H909.338V193.176H904.768V188.479H900.07V179.338H895.5V170.07H890.93V160.93H886.232V151.662H881.662V197.746H872.521V165.5ZM934.271 165.5V133.254H980.229V142.521H943.412V160.93H971.088V170.07H943.412V188.479H980.229V197.746H934.271V165.5ZM997.164 133.254H1031.7V137.824H1036.27V142.521H1040.84V160.93H1036.27V165.5H1031.7V170.07H1022.43V174.768H1027V179.338H1031.7V183.908H1036.27V188.479H1040.84V197.746H1031.7V193.176H1027V188.479H1022.43V183.908H1017.86V179.338H1013.29V174.768H1008.59V170.07H1006.3V197.746H997.164V133.254ZM1006.3 142.521V160.93H1027V156.232H1031.7V147.092H1027V142.521H1006.3Z" fill="black"/>
<path d="M332.662 314.461V312.176H328.092V307.479H323.521V252.254H332.662V302.908H341.93V279.93H351.07V302.908H360.338V252.254H369.479V307.479H364.908V312.176H360.338V316.746H351.07V312.176H341.93V316.746H332.662V314.461ZM385.271 284.5V252.254H394.412V279.93H422.088V252.254H431.229V316.746H422.088V289.07H394.412V316.746H385.271V284.5ZM456.162 252.254H483.838V256.824H488.408V261.521H492.979V307.479H488.408V312.176H483.838V316.746H456.162V312.176H451.592V307.479H447.021V261.521H451.592V256.824H456.162V252.254ZM460.732 261.521V266.092H456.162V302.908H460.732V307.479H479.268V302.908H483.838V266.092H479.268V261.521H460.732ZM570.521 252.254H607.338V256.824H611.908V261.521H616.479V279.93H611.908V289.07H616.479V307.479H611.908V312.176H607.338V316.746H570.521V252.254ZM579.662 261.521V279.93H602.768V275.232H607.338V266.092H602.768V261.521H579.662ZM579.662 289.07V307.479H602.768V302.908H607.338V293.768H602.768V289.07H579.662ZM641.412 314.461V312.176H636.842V307.479H632.271V252.254H641.412V302.908H645.982V307.479H664.518V302.908H669.088V252.254H678.229V307.479H673.658V312.176H669.088V316.746H641.412V314.461ZM703.162 312.176V307.479H712.43V261.521H703.162V252.254H730.838V261.521H721.57V307.479H730.838V316.746H703.162V312.176ZM755.771 284.5V252.254H764.912V307.479H801.729V316.746H755.771V284.5ZM817.521 252.254H845.07V256.824H849.768V261.521H854.338V266.092H858.908V270.662H863.479V298.338H858.908V302.908H854.338V307.479H849.768V312.176H845.07V316.746H817.521V252.254ZM826.662 261.521V307.479H840.5V302.908H845.07V298.338H849.768V293.768H854.338V275.232H849.768V270.662H845.07V266.092H840.5V261.521H826.662ZM883.842 314.461V312.176H879.271V302.908H888.412V307.479H911.518V302.908H916.088V293.768H911.518V289.07H888.412V284.5H883.842V279.93H879.271V261.521H883.842V256.824H888.412V252.254H920.658V256.824H925.229V266.092H916.088V261.521H892.982V266.092H888.412V275.232H892.982V279.93H916.088V284.5H920.658V289.07H925.229V307.479H920.658V312.176H916.088V316.746H883.842V314.461ZM1002.77 252.254H1039.59V256.824H1044.16V261.521H1048.73V279.93H1044.16V289.07H1048.73V307.479H1044.16V312.176H1039.59V316.746H1002.77V252.254ZM1011.91 261.521V279.93H1035.02V275.232H1039.59V266.092H1035.02V261.521H1011.91ZM1011.91 289.07V307.479H1035.02V302.908H1039.59V293.768H1035.02V289.07H1011.91ZM1065.66 252.254H1100.2V256.824H1104.77V261.521H1109.34V279.93H1104.77V284.5H1100.2V289.07H1090.93V293.768H1095.5V298.338H1100.2V302.908H1104.77V307.479H1109.34V316.746H1100.2V312.176H1095.5V307.479H1090.93V302.908H1086.36V298.338H1081.79V293.768H1077.09V289.07H1074.8V316.746H1065.66V252.254ZM1074.8 261.521V279.93H1095.5V275.232H1100.2V266.092H1095.5V261.521H1074.8ZM1144.68 252.254H1153.82V256.824H1158.52V261.521H1163.09V266.092H1167.66V270.662H1172.23V316.746H1163.09V298.338H1135.41V316.746H1126.27V270.662H1130.84V266.092H1135.41V261.521H1139.98V256.824H1144.68V252.254ZM1144.68 266.092V270.662H1139.98V275.232H1135.41V289.07H1163.09V275.232H1158.52V270.662H1153.82V266.092H1144.68ZM1188.02 284.5V252.254H1197.16V256.824H1201.73V261.521H1206.43V270.662H1211V279.93H1215.57V289.07H1220.27V298.338H1224.84V252.254H1233.98V316.746H1224.84V312.176H1220.27V307.479H1215.57V298.338H1211V289.07H1206.43V279.93H1201.73V270.662H1197.16V316.746H1188.02V284.5ZM1249.77 252.254H1277.32V256.824H1282.02V261.521H1286.59V266.092H1291.16V270.662H1295.73V298.338H1291.16V302.908H1286.59V307.479H1282.02V312.176H1277.32V316.746H1249.77V252.254ZM1258.91 261.521V307.479H1272.75V302.908H1277.32V298.338H1282.02V293.768H1286.59V275.232H1282.02V270.662H1277.32V266.092H1272.75V261.521H1258.91ZM1316.09 314.461V312.176H1311.52V302.908H1320.66V307.479H1343.77V302.908H1348.34V293.768H1343.77V289.07H1320.66V284.5H1316.09V279.93H1311.52V261.521H1316.09V256.824H1320.66V252.254H1352.91V256.824H1357.48V266.092H1348.34V261.521H1325.23V266.092H1320.66V275.232H1325.23V279.93H1348.34V284.5H1352.91V289.07H1357.48V307.479H1352.91V312.176H1348.34V316.746H1316.09V314.461ZM1386.98 314.715V312.43H1391.68V307.732H1396.25V298.592H1405.52V307.732H1400.82V312.43H1396.25V317H1386.98V314.715Z" fill="black"/>
<path d="M199.664 371.254H234.195V375.824H238.766V380.521H243.336V398.93H238.766V403.5H234.195V408.07H208.805V435.746H199.664V371.254ZM208.805 380.521V398.93H231.91V394.232H236.48V385.092H231.91V380.521H208.805ZM261.414 371.254H295.945V375.824H300.516V380.521H305.086V398.93H300.516V403.5H295.945V408.07H286.678V412.768H291.248V417.338H295.945V421.908H300.516V426.479H305.086V435.746H295.945V431.176H291.248V426.479H286.678V421.908H282.107V417.338H277.537V412.768H272.84V408.07H270.555V435.746H261.414V371.254ZM270.555 380.521V398.93H291.248V394.232H295.945V385.092H291.248V380.521H270.555ZM331.162 371.254H358.838V375.824H363.408V380.521H367.979V426.479H363.408V431.176H358.838V435.746H331.162V431.176H326.592V426.479H322.021V380.521H326.592V375.824H331.162V371.254ZM335.732 380.521V385.092H331.162V421.908H335.732V426.479H354.268V421.908H358.838V385.092H354.268V380.521H335.732ZM383.771 371.254H411.32V375.824H416.018V380.521H420.588V385.092H425.158V389.662H429.729V417.338H425.158V421.908H420.588V426.479H416.018V431.176H411.32V435.746H383.771V371.254ZM392.912 380.521V426.479H406.75V421.908H411.32V417.338H416.018V412.768H420.588V394.232H416.018V389.662H411.32V385.092H406.75V380.521H392.912ZM454.662 433.461V431.176H450.092V426.479H445.521V371.254H454.662V421.908H459.232V426.479H477.768V421.908H482.338V371.254H491.479V426.479H486.908V431.176H482.338V435.746H454.662V433.461ZM516.412 433.461V431.176H511.842V426.479H507.271V380.521H511.842V375.824H516.412V371.254H544.088V375.824H548.658V380.521H553.229V389.662H544.088V385.092H539.518V380.521H520.982V385.092H516.412V421.908H520.982V426.479H539.518V421.908H544.088V417.338H553.229V426.479H548.658V431.176H544.088V435.746H516.412V433.461ZM587.43 408.07V380.521H569.021V371.254H614.979V380.521H596.57V435.746H587.43V408.07ZM635.342 433.461V431.176H630.771V421.908H639.912V426.479H663.018V421.908H667.588V412.768H663.018V408.07H639.912V403.5H635.342V398.93H630.771V380.521H635.342V375.824H639.912V371.254H672.158V375.824H676.729V385.092H667.588V380.521H644.482V385.092H639.912V394.232H644.482V398.93H667.588V403.5H672.158V408.07H676.729V426.479H672.158V431.176H667.588V435.746H635.342V433.461ZM706.232 433.715V431.43H710.93V426.732H715.5V417.592H724.768V426.732H720.07V431.43H715.5V436H706.232V433.715ZM834.43 371.254H843.57V375.824H848.268V380.521H852.838V385.092H857.408V389.662H861.979V435.746H852.838V417.338H825.162V435.746H816.021V389.662H820.592V385.092H825.162V380.521H829.732V375.824H834.43V371.254ZM834.43 385.092V389.662H829.732V394.232H825.162V408.07H852.838V394.232H848.268V389.662H843.57V385.092H834.43ZM877.771 403.5V371.254H886.912V375.824H891.482V380.521H896.18V389.662H900.75V398.93H905.32V408.07H910.018V417.338H914.588V371.254H923.729V435.746H914.588V431.176H910.018V426.479H905.32V417.338H900.75V408.07H896.18V398.93H891.482V389.662H886.912V435.746H877.771V403.5ZM939.521 371.254H967.07V375.824H971.768V380.521H976.338V385.092H980.908V389.662H985.479V417.338H980.908V421.908H976.338V426.479H971.768V431.176H967.07V435.746H939.521V371.254ZM948.662 380.521V426.479H962.5V421.908H967.07V417.338H971.768V412.768H976.338V394.232H971.768V389.662H967.07V385.092H962.5V380.521H948.662ZM1072.16 431.176V426.479H1081.43V380.521H1072.16V371.254H1099.84V380.521H1090.57V426.479H1099.84V435.746H1072.16V431.176ZM1124.77 403.5V371.254H1133.91V375.824H1138.48V380.521H1143.18V389.662H1147.75V398.93H1152.32V408.07H1157.02V417.338H1161.59V371.254H1170.73V435.746H1161.59V431.176H1157.02V426.479H1152.32V417.338H1147.75V408.07H1143.18V398.93H1138.48V389.662H1133.91V435.746H1124.77V403.5ZM1204.93 408.07V380.521H1186.52V371.254H1232.48V380.521H1214.07V435.746H1204.93V408.07ZM1248.27 403.5V371.254H1294.23V380.521H1257.41V398.93H1285.09V408.07H1257.41V426.479H1294.23V435.746H1248.27V403.5ZM1311.16 371.254H1345.7V375.824H1350.27V380.521H1354.84V398.93H1350.27V403.5H1345.7V408.07H1336.43V412.768H1341V417.338H1345.7V421.908H1350.27V426.479H1354.84V435.746H1345.7V431.176H1341V426.479H1336.43V421.908H1331.86V417.338H1327.29V412.768H1322.59V408.07H1320.3V435.746H1311.16V371.254ZM1320.3 380.521V398.93H1341V394.232H1345.7V385.092H1341V380.521H1320.3ZM1390.18 371.254H1399.32V375.824H1404.02V380.521H1408.59V385.092H1413.16V389.662H1417.73V435.746H1408.59V417.338H1380.91V435.746H1371.77V389.662H1376.34V385.092H1380.91V380.521H1385.48V375.824H1390.18V371.254ZM1390.18 385.092V389.662H1385.48V394.232H1380.91V408.07H1408.59V394.232H1404.02V389.662H1399.32V385.092H1390.18ZM1442.66 433.461V431.176H1438.09V426.479H1433.52V380.521H1438.09V375.824H1442.66V371.254H1470.34V375.824H1474.91V380.521H1479.48V389.662H1470.34V385.092H1465.77V380.521H1447.23V385.092H1442.66V421.908H1447.23V426.479H1465.77V421.908H1470.34V417.338H1479.48V426.479H1474.91V431.176H1470.34V435.746H1442.66V433.461ZM1513.68 408.07V380.521H1495.27V371.254H1541.23V380.521H1522.82V435.746H1513.68V408.07ZM1566.16 431.176V426.479H1575.43V380.521H1566.16V371.254H1593.84V380.521H1584.57V426.479H1593.84V435.746H1566.16V431.176ZM1627.91 371.254H1655.59V375.824H1660.16V380.521H1664.73V426.479H1660.16V431.176H1655.59V435.746H1627.91V431.176H1623.34V426.479H1618.77V380.521H1623.34V375.824H1627.91V371.254ZM1632.48 380.521V385.092H1627.91V421.908H1632.48V426.479H1651.02V421.908H1655.59V385.092H1651.02V380.521H1632.48ZM1680.52 403.5V371.254H1689.66V375.824H1694.23V380.521H1698.93V389.662H1703.5V398.93H1708.07V408.07H1712.77V417.338H1717.34V371.254H1726.48V435.746H1717.34V431.176H1712.77V426.479H1708.07V417.338H1703.5V408.07H1698.93V398.93H1694.23V389.662H1689.66V435.746H1680.52V403.5ZM1746.84 433.461V431.176H1742.27V421.908H1751.41V426.479H1774.52V421.908H1779.09V412.768H1774.52V408.07H1751.41V403.5H1746.84V398.93H1742.27V380.521H1746.84V375.824H1751.41V371.254H1783.66V375.824H1788.23V385.092H1779.09V380.521H1755.98V385.092H1751.41V394.232H1755.98V398.93H1779.09V403.5H1783.66V408.07H1788.23V426.479H1783.66V431.176H1779.09V435.746H1746.84V433.461Z" fill="black"/>
<path d="M167.93 527.07V499.521H149.521V490.254H195.479V499.521H177.07V554.746H167.93V527.07ZM211.271 522.5V490.254H220.412V517.93H248.088V490.254H257.229V554.746H248.088V527.07H220.412V554.746H211.271V522.5ZM291.43 490.254H300.57V494.824H305.268V499.521H309.838V504.092H314.408V508.662H318.979V554.746H309.838V536.338H282.162V554.746H273.021V508.662H277.592V504.092H282.162V499.521H286.732V494.824H291.43V490.254ZM291.43 504.092V508.662H286.732V513.232H282.162V527.07H309.838V513.232H305.268V508.662H300.57V504.092H291.43ZM353.18 527.07V499.521H334.771V490.254H380.729V499.521H362.32V554.746H353.18V527.07ZM458.271 522.5V490.254H467.412V494.824H471.982V499.521H476.68V504.092H485.82V499.521H490.518V494.824H495.088V490.254H504.229V554.746H495.088V508.662H490.518V513.232H485.82V522.5H476.68V513.232H471.982V508.662H467.412V554.746H458.271V522.5ZM538.43 490.254H547.57V494.824H552.268V499.521H556.838V504.092H561.408V508.662H565.979V554.746H556.838V536.338H529.162V554.746H520.021V508.662H524.592V504.092H529.162V499.521H533.732V494.824H538.43V490.254ZM538.43 504.092V508.662H533.732V513.232H529.162V527.07H556.838V513.232H552.268V508.662H547.57V504.092H538.43ZM581.771 522.5V490.254H590.912V517.93H595.482V513.232H600.18V508.662H604.75V504.092H609.32V499.521H614.018V494.824H618.588V490.254H627.729V499.521H623.158V504.092H618.588V508.662H614.018V513.232H609.32V517.93H604.75V527.07H609.32V531.768H614.018V536.338H618.588V540.908H623.158V545.479H627.729V554.746H618.588V550.176H614.018V545.479H609.32V540.908H604.75V536.338H600.18V531.768H595.482V527.07H590.912V554.746H581.771V522.5ZM643.521 522.5V490.254H689.479V499.521H652.662V517.93H680.338V527.07H652.662V545.479H689.479V554.746H643.521V522.5ZM767.021 490.254H803.838V494.824H808.408V499.521H812.979V517.93H808.408V527.07H812.979V545.479H808.408V550.176H803.838V554.746H767.021V490.254ZM776.162 499.521V517.93H799.268V513.232H803.838V504.092H799.268V499.521H776.162ZM776.162 527.07V545.479H799.268V540.908H803.838V531.768H799.268V527.07H776.162ZM837.912 490.254H865.588V494.824H870.158V499.521H874.729V545.479H870.158V550.176H865.588V554.746H837.912V550.176H833.342V545.479H828.771V499.521H833.342V494.824H837.912V490.254ZM842.482 499.521V504.092H837.912V540.908H842.482V545.479H861.018V540.908H865.588V504.092H861.018V499.521H842.482ZM908.93 527.07V499.521H890.521V490.254H936.479V499.521H918.07V554.746H908.93V527.07ZM952.271 522.5V490.254H961.412V517.93H989.088V490.254H998.229V554.746H989.088V527.07H961.412V554.746H952.271V522.5ZM1075.77 522.5V490.254H1121.73V499.521H1084.91V517.93H1112.59V527.07H1084.91V554.746H1075.77V522.5ZM1137.52 522.5V490.254H1183.48V499.521H1146.66V517.93H1174.34V527.07H1146.66V545.479H1183.48V554.746H1137.52V522.5ZM1199.27 522.5V490.254H1245.23V499.521H1208.41V517.93H1236.09V527.07H1208.41V545.479H1245.23V554.746H1199.27V522.5ZM1261.02 522.5V490.254H1270.16V545.479H1306.98V554.746H1261.02V522.5ZM1402.93 490.254H1412.07V494.824H1416.77V499.521H1421.34V504.092H1425.91V508.662H1430.48V554.746H1421.34V536.338H1393.66V554.746H1384.52V508.662H1389.09V504.092H1393.66V499.521H1398.23V494.824H1402.93V490.254ZM1402.93 504.092V508.662H1398.23V513.232H1393.66V527.07H1421.34V513.232H1416.77V508.662H1412.07V504.092H1402.93ZM1446.27 522.5V490.254H1455.41V545.479H1492.23V554.746H1446.27V522.5ZM1517.16 550.176V545.479H1526.43V499.521H1517.16V490.254H1544.84V499.521H1535.57V545.479H1544.84V554.746H1517.16V550.176ZM1588.18 552.461V550.176H1583.48V545.479H1578.91V540.908H1574.34V536.338H1569.77V490.254H1578.91V531.768H1583.48V536.338H1588.18V540.908H1597.32V536.338H1602.02V531.768H1606.59V490.254H1615.73V536.338H1611.16V540.908H1606.59V545.479H1602.02V550.176H1597.32V554.746H1588.18V552.461ZM1631.52 522.5V490.254H1677.48V499.521H1640.66V517.93H1668.34V527.07H1640.66V545.479H1677.48V554.746H1631.52V522.5ZM1711.68 550.43V545.732H1720.82V555H1711.68V550.43Z" fill="black"/>
</svg>
